<mxfile host="app.diagrams.net" modified="2023-05-30T13:56:20.202Z" agent="Mozilla/5.0 (Windows NT 10.0; Win64; x64) AppleWebKit/537.36 (KHTML, like Gecko) Chrome/113.0.0.0 Safari/537.36" etag="AzYEqO0DepPGncz4gcmW" version="21.3.2" type="github">
  <diagram name="Página-1" id="ZTQCTa8oVHvdBEJfnDKB">
    <mxGraphModel dx="934" dy="906" grid="0" gridSize="10" guides="1" tooltips="1" connect="1" arrows="1" fold="1" page="0" pageScale="1" pageWidth="827" pageHeight="1169" background="#ffffff" math="0" shadow="0">
      <root>
        <mxCell id="0" />
        <mxCell id="1" parent="0" />
        <mxCell id="vJJrtMUxVcobKQH2LcpP-1" value="USB 2.0 HUB (7x)" style="rounded=1;whiteSpace=wrap;html=1;fillColor=#6d8764;strokeColor=#3A5431;fontColor=#ffffff;" parent="1" vertex="1">
          <mxGeometry x="329" y="163" width="141" height="139" as="geometry" />
        </mxCell>
        <mxCell id="vJJrtMUxVcobKQH2LcpP-11" value="" style="edgeStyle=orthogonalEdgeStyle;rounded=0;orthogonalLoop=1;jettySize=auto;html=1;fillColor=#0050ef;strokeColor=#001DBC;" parent="1" source="vJJrtMUxVcobKQH2LcpP-4" target="vJJrtMUxVcobKQH2LcpP-10" edge="1">
          <mxGeometry relative="1" as="geometry" />
        </mxCell>
        <mxCell id="vJJrtMUxVcobKQH2LcpP-4" value="Power Supply (+24VDC)" style="rounded=0;whiteSpace=wrap;html=1;fillColor=#647687;fontColor=#ffffff;strokeColor=#314354;" parent="1" vertex="1">
          <mxGeometry x="2.5" y="53.5" width="78" height="43" as="geometry" />
        </mxCell>
        <mxCell id="vJJrtMUxVcobKQH2LcpP-13" value="" style="edgeStyle=orthogonalEdgeStyle;rounded=0;orthogonalLoop=1;jettySize=auto;html=1;fillColor=#0050ef;strokeColor=#001DBC;" parent="1" source="vJJrtMUxVcobKQH2LcpP-10" target="vJJrtMUxVcobKQH2LcpP-12" edge="1">
          <mxGeometry relative="1" as="geometry" />
        </mxCell>
        <mxCell id="vJJrtMUxVcobKQH2LcpP-10" value="Conversor DC/DC&lt;br&gt;+24V-&amp;gt;+5V" style="whiteSpace=wrap;html=1;fillColor=#647687;strokeColor=#314354;fontColor=#ffffff;rounded=0;" parent="1" vertex="1">
          <mxGeometry x="139.5" y="45" width="120" height="60" as="geometry" />
        </mxCell>
        <mxCell id="vJJrtMUxVcobKQH2LcpP-12" value="Regulador (LDO) &lt;br&gt;+5V-&amp;gt;+3.3V" style="whiteSpace=wrap;html=1;fillColor=#647687;strokeColor=#314354;fontColor=#ffffff;rounded=0;" parent="1" vertex="1">
          <mxGeometry x="339.5" y="45" width="120" height="60" as="geometry" />
        </mxCell>
        <mxCell id="vJJrtMUxVcobKQH2LcpP-14" value="Cristal 24MHz" style="shape=process;whiteSpace=wrap;html=1;backgroundOutline=1;fillColor=#e3c800;fontColor=#000000;strokeColor=#B09500;" parent="1" vertex="1">
          <mxGeometry x="257" y="369" width="120" height="60" as="geometry" />
        </mxCell>
        <mxCell id="vJJrtMUxVcobKQH2LcpP-15" value="" style="endArrow=none;html=1;rounded=0;exitX=0.75;exitY=0;exitDx=0;exitDy=0;fillColor=#0050ef;strokeColor=#001DBC;entryX=0.124;entryY=1.006;entryDx=0;entryDy=0;entryPerimeter=0;" parent="1" source="vJJrtMUxVcobKQH2LcpP-14" target="vJJrtMUxVcobKQH2LcpP-1" edge="1">
          <mxGeometry width="50" height="50" relative="1" as="geometry">
            <mxPoint x="245.5" y="286" as="sourcePoint" />
            <mxPoint x="351" y="307" as="targetPoint" />
          </mxGeometry>
        </mxCell>
        <mxCell id="vJJrtMUxVcobKQH2LcpP-16" value="" style="endArrow=classic;html=1;rounded=0;exitX=0.5;exitY=1;exitDx=0;exitDy=0;fillColor=#0050ef;strokeColor=#001DBC;" parent="1" source="vJJrtMUxVcobKQH2LcpP-12" target="vJJrtMUxVcobKQH2LcpP-1" edge="1">
          <mxGeometry width="50" height="50" relative="1" as="geometry">
            <mxPoint x="292" y="286" as="sourcePoint" />
            <mxPoint x="342" y="236" as="targetPoint" />
          </mxGeometry>
        </mxCell>
        <mxCell id="vJJrtMUxVcobKQH2LcpP-17" value="&lt;font color=&quot;#ffffff&quot;&gt;USB B&amp;nbsp;&lt;br&gt;(Host)&lt;br&gt;&lt;/font&gt;" style="rounded=1;whiteSpace=wrap;html=1;fillColor=#fa6800;fontColor=#000000;strokeColor=#C73500;" parent="1" vertex="1">
          <mxGeometry x="2.5" y="202.5" width="120" height="60" as="geometry" />
        </mxCell>
        <mxCell id="vJJrtMUxVcobKQH2LcpP-18" value="24V" style="text;html=1;align=center;verticalAlign=middle;whiteSpace=wrap;rounded=0;fillColor=none;labelBackgroundColor=none;fontColor=#000000;" parent="1" vertex="1">
          <mxGeometry x="77" y="50" width="60" height="30" as="geometry" />
        </mxCell>
        <mxCell id="vJJrtMUxVcobKQH2LcpP-19" value="5V" style="text;html=1;align=center;verticalAlign=middle;whiteSpace=wrap;rounded=0;fillColor=none;labelBackgroundColor=none;fontColor=#000000;" parent="1" vertex="1">
          <mxGeometry x="269" y="45" width="60" height="30" as="geometry" />
        </mxCell>
        <mxCell id="vJJrtMUxVcobKQH2LcpP-20" value="3.3V" style="text;html=1;align=center;verticalAlign=middle;whiteSpace=wrap;rounded=0;fillColor=none;labelBackgroundColor=none;fontColor=#000000;rotation=90;" parent="1" vertex="1">
          <mxGeometry x="383" y="113" width="60" height="30" as="geometry" />
        </mxCell>
        <mxCell id="vJJrtMUxVcobKQH2LcpP-21" value="" style="endArrow=classic;html=1;rounded=0;exitX=1;exitY=0.25;exitDx=0;exitDy=0;fillColor=#0050ef;strokeColor=#001DBC;entryX=0.021;entryY=0.392;entryDx=0;entryDy=0;entryPerimeter=0;" parent="1" source="vJJrtMUxVcobKQH2LcpP-17" target="vJJrtMUxVcobKQH2LcpP-1" edge="1">
          <mxGeometry width="50" height="50" relative="1" as="geometry">
            <mxPoint x="326" y="238" as="sourcePoint" />
            <mxPoint x="329" y="215" as="targetPoint" />
          </mxGeometry>
        </mxCell>
        <mxCell id="vJJrtMUxVcobKQH2LcpP-23" value="" style="endArrow=classic;startArrow=classic;html=1;rounded=0;exitX=1;exitY=0.75;exitDx=0;exitDy=0;entryX=-0.002;entryY=0.604;entryDx=0;entryDy=0;entryPerimeter=0;fillColor=#0050ef;strokeColor=#001DBC;" parent="1" source="vJJrtMUxVcobKQH2LcpP-17" target="vJJrtMUxVcobKQH2LcpP-1" edge="1">
          <mxGeometry width="50" height="50" relative="1" as="geometry">
            <mxPoint x="326" y="238" as="sourcePoint" />
            <mxPoint x="376" y="188" as="targetPoint" />
          </mxGeometry>
        </mxCell>
        <mxCell id="vJJrtMUxVcobKQH2LcpP-26" value="&lt;font color=&quot;#000000&quot;&gt;VBUS&lt;/font&gt;" style="text;html=1;align=center;verticalAlign=middle;resizable=0;points=[];autosize=1;strokeColor=none;fillColor=none;" parent="1" vertex="1">
          <mxGeometry x="190" y="193" width="51" height="26" as="geometry" />
        </mxCell>
        <mxCell id="vJJrtMUxVcobKQH2LcpP-27" value="&lt;font color=&quot;#000000&quot;&gt;D+/D-&lt;/font&gt;" style="text;html=1;align=center;verticalAlign=middle;resizable=0;points=[];autosize=1;strokeColor=none;fillColor=none;" parent="1" vertex="1">
          <mxGeometry x="191" y="223" width="50" height="26" as="geometry" />
        </mxCell>
        <mxCell id="vJJrtMUxVcobKQH2LcpP-28" value="Mecanismos de comutação_1 e&lt;br&gt;&amp;nbsp;Over-Current switch" style="rounded=1;whiteSpace=wrap;html=1;" parent="1" vertex="1">
          <mxGeometry x="574" y="155" width="120" height="60" as="geometry" />
        </mxCell>
        <mxCell id="vJJrtMUxVcobKQH2LcpP-30" value="" style="endArrow=none;html=1;rounded=0;exitX=0.25;exitY=1;exitDx=0;exitDy=0;fillColor=#0050ef;strokeColor=#001DBC;" parent="1" source="vJJrtMUxVcobKQH2LcpP-19" edge="1">
          <mxGeometry width="50" height="50" relative="1" as="geometry">
            <mxPoint x="390" y="195" as="sourcePoint" />
            <mxPoint x="284" y="5" as="targetPoint" />
          </mxGeometry>
        </mxCell>
        <mxCell id="vJJrtMUxVcobKQH2LcpP-31" value="" style="endArrow=none;html=1;rounded=0;fillColor=#0050ef;strokeColor=#001DBC;" parent="1" edge="1">
          <mxGeometry width="50" height="50" relative="1" as="geometry">
            <mxPoint x="285" y="5" as="sourcePoint" />
            <mxPoint x="603" y="5" as="targetPoint" />
          </mxGeometry>
        </mxCell>
        <mxCell id="vJJrtMUxVcobKQH2LcpP-32" value="" style="endArrow=classic;html=1;rounded=0;entryX=0.25;entryY=0;entryDx=0;entryDy=0;fillColor=#0050ef;strokeColor=#001DBC;" parent="1" target="vJJrtMUxVcobKQH2LcpP-28" edge="1">
          <mxGeometry width="50" height="50" relative="1" as="geometry">
            <mxPoint x="604" y="6" as="sourcePoint" />
            <mxPoint x="440" y="145" as="targetPoint" />
          </mxGeometry>
        </mxCell>
        <mxCell id="vJJrtMUxVcobKQH2LcpP-33" value="" style="endArrow=classic;html=1;rounded=0;entryX=0.139;entryY=0.003;entryDx=0;entryDy=0;entryPerimeter=0;fillColor=#0050ef;strokeColor=#001DBC;" parent="1" target="vJJrtMUxVcobKQH2LcpP-28" edge="1">
          <mxGeometry width="50" height="50" relative="1" as="geometry">
            <mxPoint x="591" y="73" as="sourcePoint" />
            <mxPoint x="440" y="145" as="targetPoint" />
          </mxGeometry>
        </mxCell>
        <mxCell id="vJJrtMUxVcobKQH2LcpP-34" value="" style="endArrow=none;html=1;rounded=0;fillColor=#0050ef;strokeColor=#001DBC;exitX=1;exitY=0.5;exitDx=0;exitDy=0;" parent="1" source="vJJrtMUxVcobKQH2LcpP-12" edge="1">
          <mxGeometry width="50" height="50" relative="1" as="geometry">
            <mxPoint x="295" y="15" as="sourcePoint" />
            <mxPoint x="590" y="75" as="targetPoint" />
          </mxGeometry>
        </mxCell>
        <mxCell id="vJJrtMUxVcobKQH2LcpP-35" value="" style="endArrow=classic;html=1;rounded=0;exitX=0.922;exitY=0.006;exitDx=0;exitDy=0;fillColor=#0050ef;strokeColor=#001DBC;exitPerimeter=0;" parent="1" source="vJJrtMUxVcobKQH2LcpP-1" edge="1">
          <mxGeometry width="50" height="50" relative="1" as="geometry">
            <mxPoint x="390" y="195" as="sourcePoint" />
            <mxPoint x="577" y="163" as="targetPoint" />
          </mxGeometry>
        </mxCell>
        <mxCell id="vJJrtMUxVcobKQH2LcpP-37" value="" style="endArrow=classic;startArrow=classic;html=1;rounded=0;entryX=0;entryY=0.75;entryDx=0;entryDy=0;fillColor=#0050ef;strokeColor=#001DBC;" parent="1" target="vJJrtMUxVcobKQH2LcpP-28" edge="1">
          <mxGeometry width="50" height="50" relative="1" as="geometry">
            <mxPoint x="470" y="200" as="sourcePoint" />
            <mxPoint x="440" y="145" as="targetPoint" />
          </mxGeometry>
        </mxCell>
        <mxCell id="vJJrtMUxVcobKQH2LcpP-39" value="" style="endArrow=classic;html=1;rounded=0;fillColor=#0050ef;strokeColor=#001DBC;entryX=0.993;entryY=0.698;entryDx=0;entryDy=0;entryPerimeter=0;" parent="1" target="vJJrtMUxVcobKQH2LcpP-1" edge="1">
          <mxGeometry width="50" height="50" relative="1" as="geometry">
            <mxPoint x="628" y="260" as="sourcePoint" />
            <mxPoint x="587" y="173" as="targetPoint" />
          </mxGeometry>
        </mxCell>
        <mxCell id="vJJrtMUxVcobKQH2LcpP-40" value="" style="endArrow=classic;html=1;rounded=0;fillColor=#0050ef;strokeColor=#001DBC;" parent="1" edge="1">
          <mxGeometry width="50" height="50" relative="1" as="geometry">
            <mxPoint x="626" y="261" as="sourcePoint" />
            <mxPoint x="626" y="211" as="targetPoint" />
          </mxGeometry>
        </mxCell>
        <mxCell id="vJJrtMUxVcobKQH2LcpP-42" value="&lt;font color=&quot;#000000&quot;&gt;D+/D-&lt;/font&gt;" style="text;html=1;align=center;verticalAlign=middle;resizable=0;points=[];autosize=1;strokeColor=none;fillColor=none;" parent="1" vertex="1">
          <mxGeometry x="524" y="233" width="50" height="26" as="geometry" />
        </mxCell>
        <mxCell id="vJJrtMUxVcobKQH2LcpP-44" value="&lt;font color=&quot;#000000&quot;&gt;OC&lt;/font&gt;" style="text;html=1;align=center;verticalAlign=middle;resizable=0;points=[];autosize=1;strokeColor=none;fillColor=none;" parent="1" vertex="1">
          <mxGeometry x="507" y="172" width="36" height="26" as="geometry" />
        </mxCell>
        <mxCell id="vJJrtMUxVcobKQH2LcpP-45" value="&lt;font color=&quot;#000000&quot;&gt;PRTPWR&lt;/font&gt;" style="text;html=1;align=center;verticalAlign=middle;resizable=0;points=[];autosize=1;strokeColor=none;fillColor=none;" parent="1" vertex="1">
          <mxGeometry x="490" y="134" width="70" height="26" as="geometry" />
        </mxCell>
        <mxCell id="vJJrtMUxVcobKQH2LcpP-50" style="edgeStyle=orthogonalEdgeStyle;rounded=0;orthogonalLoop=1;jettySize=auto;html=1;exitX=0.25;exitY=1;exitDx=0;exitDy=0;entryX=0.5;entryY=0;entryDx=0;entryDy=0;fillColor=#0050ef;strokeColor=#001DBC;" parent="1" source="vJJrtMUxVcobKQH2LcpP-48" target="vJJrtMUxVcobKQH2LcpP-28" edge="1">
          <mxGeometry relative="1" as="geometry" />
        </mxCell>
        <mxCell id="vJJrtMUxVcobKQH2LcpP-48" value="Microcontrolador" style="rounded=1;whiteSpace=wrap;html=1;fillColor=#76608a;fontColor=#ffffff;strokeColor=#432D57;" parent="1" vertex="1">
          <mxGeometry x="646" y="-3" width="120" height="60" as="geometry" />
        </mxCell>
        <mxCell id="vJJrtMUxVcobKQH2LcpP-49" value="" style="endArrow=none;html=1;rounded=0;fillColor=#0050ef;strokeColor=#001DBC;entryX=0;entryY=0.5;entryDx=0;entryDy=0;" parent="1" target="vJJrtMUxVcobKQH2LcpP-48" edge="1">
          <mxGeometry width="50" height="50" relative="1" as="geometry">
            <mxPoint x="603" y="27" as="sourcePoint" />
            <mxPoint x="613" y="15" as="targetPoint" />
          </mxGeometry>
        </mxCell>
        <mxCell id="vJJrtMUxVcobKQH2LcpP-51" value="&lt;font color=&quot;#000000&quot;&gt;Enable_1&lt;/font&gt;" style="text;html=1;align=center;verticalAlign=middle;resizable=0;points=[];autosize=1;strokeColor=none;fillColor=none;" parent="1" vertex="1">
          <mxGeometry x="613" y="83" width="69" height="26" as="geometry" />
        </mxCell>
        <mxCell id="vJJrtMUxVcobKQH2LcpP-52" value="&lt;font color=&quot;#ffffff&quot;&gt;USB A&amp;nbsp;&lt;br&gt;(Downstream 1)&lt;br&gt;&lt;/font&gt;" style="rounded=1;whiteSpace=wrap;html=1;fillColor=#fa6800;fontColor=#000000;strokeColor=#C73500;" parent="1" vertex="1">
          <mxGeometry x="766" y="127" width="120" height="60" as="geometry" />
        </mxCell>
        <mxCell id="vJJrtMUxVcobKQH2LcpP-53" value="" style="endArrow=classic;html=1;rounded=0;fillColor=#0050ef;strokeColor=#001DBC;entryX=0.5;entryY=1;entryDx=0;entryDy=0;" parent="1" target="vJJrtMUxVcobKQH2LcpP-52" edge="1">
          <mxGeometry width="50" height="50" relative="1" as="geometry">
            <mxPoint x="826" y="255" as="sourcePoint" />
            <mxPoint x="479" y="270" as="targetPoint" />
          </mxGeometry>
        </mxCell>
        <mxCell id="vJJrtMUxVcobKQH2LcpP-55" value="&lt;font color=&quot;#000000&quot;&gt;D+/D-&lt;/font&gt;" style="text;html=1;align=center;verticalAlign=middle;resizable=0;points=[];autosize=1;strokeColor=none;fillColor=none;" parent="1" vertex="1">
          <mxGeometry x="758" y="233" width="50" height="26" as="geometry" />
        </mxCell>
        <mxCell id="vJJrtMUxVcobKQH2LcpP-56" value="" style="endArrow=classic;html=1;rounded=0;fillColor=#0050ef;strokeColor=#001DBC;entryX=0.891;entryY=0.983;entryDx=0;entryDy=0;entryPerimeter=0;" parent="1" target="vJJrtMUxVcobKQH2LcpP-28" edge="1">
          <mxGeometry width="50" height="50" relative="1" as="geometry">
            <mxPoint x="681" y="258" as="sourcePoint" />
            <mxPoint x="680" y="219" as="targetPoint" />
          </mxGeometry>
        </mxCell>
        <mxCell id="vJJrtMUxVcobKQH2LcpP-57" value="" style="endArrow=none;html=1;rounded=0;fillColor=#0050ef;strokeColor=#001DBC;" parent="1" edge="1">
          <mxGeometry width="50" height="50" relative="1" as="geometry">
            <mxPoint x="680" y="257" as="sourcePoint" />
            <mxPoint x="828" y="257" as="targetPoint" />
          </mxGeometry>
        </mxCell>
        <mxCell id="vJJrtMUxVcobKQH2LcpP-58" value="" style="endArrow=classic;html=1;rounded=0;fillColor=#0050ef;strokeColor=#001DBC;" parent="1" edge="1">
          <mxGeometry width="50" height="50" relative="1" as="geometry">
            <mxPoint x="694" y="165" as="sourcePoint" />
            <mxPoint x="766" y="165" as="targetPoint" />
          </mxGeometry>
        </mxCell>
        <mxCell id="vJJrtMUxVcobKQH2LcpP-59" value="&lt;font color=&quot;#000000&quot;&gt;5V&lt;/font&gt;" style="text;html=1;align=center;verticalAlign=middle;resizable=0;points=[];autosize=1;strokeColor=none;fillColor=none;" parent="1" vertex="1">
          <mxGeometry x="713" y="144" width="33" height="26" as="geometry" />
        </mxCell>
        <mxCell id="3P84bIKMB8n4Hgv1hW9t-1" value="Configuração" style="shape=process;whiteSpace=wrap;html=1;backgroundOutline=1;fillColor=#647687;fontColor=#ffffff;strokeColor=#314354;" vertex="1" parent="1">
          <mxGeometry x="419" y="369" width="120" height="60" as="geometry" />
        </mxCell>
        <mxCell id="3P84bIKMB8n4Hgv1hW9t-2" value="" style="endArrow=none;html=1;rounded=0;entryX=0.801;entryY=0.991;entryDx=0;entryDy=0;fillColor=#0050ef;strokeColor=#001DBC;entryPerimeter=0;" edge="1" parent="1" target="vJJrtMUxVcobKQH2LcpP-1">
          <mxGeometry width="50" height="50" relative="1" as="geometry">
            <mxPoint x="442" y="370" as="sourcePoint" />
            <mxPoint x="479" y="302" as="targetPoint" />
          </mxGeometry>
        </mxCell>
        <mxCell id="3P84bIKMB8n4Hgv1hW9t-4" value="" style="ellipse;whiteSpace=wrap;html=1;aspect=fixed;fillColor=#fa6800;fontColor=#000000;strokeColor=#C73500;" vertex="1" parent="1">
          <mxGeometry x="826" y="282" width="20" height="20" as="geometry" />
        </mxCell>
        <mxCell id="3P84bIKMB8n4Hgv1hW9t-5" value="" style="ellipse;whiteSpace=wrap;html=1;aspect=fixed;fillColor=#fa6800;fontColor=#000000;strokeColor=#C73500;" vertex="1" parent="1">
          <mxGeometry x="826" y="308" width="20" height="20" as="geometry" />
        </mxCell>
        <mxCell id="3P84bIKMB8n4Hgv1hW9t-6" value="" style="ellipse;whiteSpace=wrap;html=1;aspect=fixed;fillColor=#fa6800;fontColor=#000000;strokeColor=#C73500;" vertex="1" parent="1">
          <mxGeometry x="826" y="337" width="20" height="20" as="geometry" />
        </mxCell>
      </root>
    </mxGraphModel>
  </diagram>
</mxfile>
